<svg width="60" height="60" viewBox="0 0 60 60" fill="none" xmlns="http://www.w3.org/2000/svg">
<path d="M30.0543 49.8636C19.1254 49.8636 10.2456 40.9838 10.2456 30.0548C10.2456 19.1259 19.1254 10.2461 30.0543 10.2461C40.9833 10.2461 49.8631 19.1259 49.8631 30.0548C49.8631 40.9838 40.9833 49.8636 30.0543 49.8636ZM30.0543 14.3445C21.3931 14.3445 14.344 21.3936 14.344 30.0548C14.344 38.716 21.3931 45.7652 30.0543 45.7652C38.7156 45.7652 45.7647 38.716 45.7647 30.0548C45.7647 21.3936 38.7156 14.3445 30.0543 14.3445Z" fill="#F45E01"/>
<path d="M30.0546 60C28.5519 60 27.3224 58.8798 27.3224 57.377V57.1585C27.3224 55.6557 28.5519 54.4262 30.0546 54.4262C31.5574 54.4262 32.7869 55.6557 32.7869 57.1585C32.7869 58.6612 31.5574 60 30.0546 60ZM49.5628 52.2951C48.8525 52.2951 48.1694 52.0219 47.623 51.5027L47.2678 51.1475C46.2022 50.082 46.2022 48.3607 47.2678 47.2951C48.3333 46.2295 50.0546 46.2295 51.1202 47.2951L51.4754 47.6503C52.541 48.7158 52.541 50.4372 51.4754 51.5027C50.9563 52.0219 50.2732 52.2951 49.5628 52.2951ZM10.5464 52.2951C9.83607 52.2951 9.15301 52.0219 8.60656 51.5027C7.54098 50.4372 7.54098 48.7158 8.60656 47.6503L8.96175 47.2951C10.0273 46.2295 11.7486 46.2295 12.8142 47.2951C13.8798 48.3607 13.8798 50.082 12.8142 51.1475L12.459 51.5027C11.9399 52.0219 11.2295 52.2951 10.5464 52.2951ZM57.377 32.7869H57.1585C55.6557 32.7869 54.4262 31.5574 54.4262 30.0546C54.4262 28.5519 55.6557 27.3224 57.1585 27.3224C58.6612 27.3224 60 28.5519 60 30.0546C60 31.5574 58.8798 32.7869 57.377 32.7869ZM2.95082 32.7869H2.73224C1.22951 32.7869 0 31.5574 0 30.0546C0 28.5519 1.22951 27.3224 2.73224 27.3224C4.23497 27.3224 5.57377 28.5519 5.57377 30.0546C5.57377 31.5574 4.45355 32.7869 2.95082 32.7869ZM49.2076 13.6339C48.4973 13.6339 47.8142 13.3607 47.2678 12.8415C46.2022 11.776 46.2022 10.0546 47.2678 8.98907L47.623 8.63388C48.6885 7.56831 50.4098 7.56831 51.4754 8.63388C52.541 9.69945 52.541 11.4208 51.4754 12.4863L51.1202 12.8415C50.6011 13.3607 49.918 13.6339 49.2076 13.6339ZM10.9016 13.6339C10.1913 13.6339 9.5082 13.3607 8.96175 12.8415L8.60656 12.459C7.54098 11.3934 7.54098 9.67213 8.60656 8.60656C9.67213 7.54098 11.3934 7.54098 12.459 8.60656L12.8142 8.96175C13.8798 10.0273 13.8798 11.7486 12.8142 12.8142C12.2951 13.3607 11.5847 13.6339 10.9016 13.6339ZM30.0546 5.57377C28.5519 5.57377 27.3224 4.45355 27.3224 2.95082V2.73224C27.3224 1.22951 28.5519 0 30.0546 0C31.5574 0 32.7869 1.22951 32.7869 2.73224C32.7869 4.23497 31.5574 5.57377 30.0546 5.57377Z" fill="#F45E01"/>
</svg>
