<svg width="47" height="49" viewBox="0 0 47 49" fill="none" xmlns="http://www.w3.org/2000/svg">
<path d="M45.0934 39.988C43.9161 37.2374 42.2075 34.739 40.063 32.6318C37.9249 30.5186 35.3922 28.8337 32.6046 27.6703C32.5797 27.658 32.5547 27.6518 32.5297 27.6395C36.4181 24.8694 38.9458 20.3572 38.9458 15.2664C38.9458 6.83292 32.0179 0 23.4674 0C14.9168 0 7.989 6.83292 7.989 15.2664C7.989 20.3572 10.5167 24.8694 14.405 27.6456C14.3801 27.658 14.3551 27.6641 14.3301 27.6764C11.534 28.8399 9.02505 30.5081 6.87181 32.638C4.72924 34.7468 3.02097 37.2448 1.84133 39.9942C0.682467 42.6858 0.0574631 45.5716 0.00015607 48.4953C-0.00150976 48.561 0.0101741 48.6264 0.0345195 48.6875C0.0588649 48.7487 0.0953791 48.8045 0.141911 48.8515C0.188442 48.8985 0.244049 48.9359 0.305456 48.9614C0.366862 48.987 0.432826 49.0001 0.499459 49.0001H4.24423C4.51885 49.0001 4.73729 48.7846 4.74353 48.5199C4.86836 43.7677 6.80316 39.317 10.2234 35.9436C13.7622 32.4533 18.4619 30.5327 23.4674 30.5327C28.4729 30.5327 33.1726 32.4533 36.7114 35.9436C40.1316 39.317 42.0664 43.7677 42.1912 48.5199C42.1975 48.7908 42.4159 49.0001 42.6905 49.0001H46.4353C46.5019 49.0001 46.5679 48.987 46.6293 48.9614C46.6907 48.9359 46.7463 48.8985 46.7929 48.8515C46.8394 48.8045 46.8759 48.7487 46.9003 48.6875C46.9246 48.6264 46.9363 48.561 46.9346 48.4953C46.8722 45.5528 46.2543 42.6904 45.0934 39.988ZM23.4674 25.8543C20.6026 25.8543 17.9064 24.7524 15.878 22.7518C13.8496 20.7512 12.7324 18.0919 12.7324 15.2664C12.7324 12.4408 13.8496 9.78155 15.878 7.78092C17.9064 5.78028 20.6026 4.6784 23.4674 4.6784C26.3321 4.6784 29.0284 5.78028 31.0568 7.78092C33.0852 9.78155 34.2024 12.4408 34.2024 15.2664C34.2024 18.0919 33.0852 20.7512 31.0568 22.7518C29.0284 24.7524 26.3321 25.8543 23.4674 25.8543Z" fill="black"/>
</svg>
