<svg width="56" height="39" viewBox="0 0 56 39" fill="none" xmlns="http://www.w3.org/2000/svg">
<path d="M28.1802 0H28.4917C31.3689 0.0103986 45.9473 0.114385 49.878 1.16117C51.0663 1.48065 52.1492 2.10336 53.0183 2.96708C53.8874 3.83081 54.5124 4.90529 54.8308 6.08315C55.1844 7.40031 55.4329 9.1438 55.6009 10.9427L55.6359 11.3032L55.7129 12.2044L55.7409 12.5649C55.9684 15.733 55.9964 18.7001 55.9999 19.3482V19.6082C55.9964 20.2806 55.9649 23.4487 55.7129 26.7486L55.6849 27.1125L55.6534 27.473C55.4784 29.4556 55.2194 31.4244 54.8308 32.8733C54.5134 34.0516 53.8887 35.1266 53.0194 35.9905C52.1501 36.8544 51.0668 37.4768 49.878 37.7953C45.8178 38.8767 30.3853 38.953 28.2467 38.9565H27.7497C26.6681 38.9565 22.1949 38.9357 17.5046 38.7762L16.9095 38.7554L16.605 38.7416L16.0065 38.7173L15.4079 38.693C11.5227 38.5232 7.82298 38.2494 6.11837 37.7918C4.93001 37.4736 3.84696 36.8517 2.97772 35.9885C2.10847 35.1253 1.48355 34.051 1.16557 32.8733C0.777047 31.4279 0.518032 29.4556 0.343021 27.473L0.315019 27.109L0.287017 26.7486C0.114274 24.3999 0.0185507 22.0462 0 19.6914L0 19.2651C0.00700043 18.5198 0.0350021 15.9445 0.224014 13.1022L0.248515 12.7452L0.259016 12.5649L0.287017 12.2044L0.364022 11.3032L0.399024 10.9427C0.567034 9.1438 0.81555 7.39684 1.16907 6.08315C1.48652 4.90482 2.1112 3.82983 2.98048 2.96595C3.84976 2.10208 4.93309 1.47969 6.12187 1.16117C7.82648 0.710569 11.5262 0.433273 15.4114 0.259964L16.0065 0.2357L16.6085 0.214904L16.9095 0.204505L17.5081 0.180242C20.8392 0.0740888 24.1718 0.0151572 27.5047 0.00346635H28.1802V0ZM22.4014 11.1265V27.8265L36.9518 19.48L22.4014 11.1265Z" fill="#FF1111"/>
</svg>
