<svg width="57" height="57" viewBox="0 0 57 57" fill="none" xmlns="http://www.w3.org/2000/svg">
<path d="M28.4999 0C12.7599 0 0 12.7602 0 28.4999C0 44.2407 12.7602 56.9998 28.4999 56.9998C44.241 56.9998 56.9998 44.2407 56.9998 28.4999C56.9998 12.7613 44.241 0.00155859 28.4995 0.00155859L28.4997 0.000222655L28.4999 0ZM41.5695 41.1053C41.059 41.9425 39.9631 42.2079 39.1259 41.694C32.4344 37.6067 24.0109 36.6809 14.0905 38.9476C13.6311 39.0521 13.149 38.9699 12.7502 38.7191C12.3514 38.4683 12.0685 38.0694 11.9637 37.6101C11.9115 37.3827 11.9047 37.1472 11.9436 36.9172C11.9825 36.6871 12.0664 36.467 12.1905 36.2694C12.3146 36.0719 12.4764 35.9007 12.6667 35.7658C12.8571 35.6308 13.0721 35.5348 13.2997 35.483C24.1563 33.0027 33.4685 34.0705 40.9808 38.6617C41.818 39.1756 42.0834 40.2681 41.5695 41.1053ZM45.0579 33.3451C44.4144 34.3905 43.0464 34.7207 42.0017 34.0774C34.341 29.3687 22.6634 28.0049 13.6025 30.7554C12.4273 31.1103 11.1862 30.4481 10.8295 29.275C10.4755 28.0998 11.1381 26.8609 12.3113 26.5038C22.6614 23.363 35.5287 24.8844 44.3262 30.2905C45.3709 30.934 45.7011 32.3017 45.0579 33.3451ZM45.3574 25.2643C36.1719 19.8083 21.0173 19.3065 12.2476 21.9685C10.8393 22.3956 9.34997 21.6005 8.92336 20.1922C8.49653 18.7832 9.29074 17.295 10.7002 16.8668C20.7671 13.8106 37.5028 14.4014 48.0778 20.6793C49.3474 21.431 49.7624 23.0671 49.0103 24.332C48.2617 25.5989 46.6212 26.0164 45.3587 25.2643H45.3574Z" fill="#1ED760"/>
</svg>
