<svg width="60" height="60" viewBox="0 0 60 60" fill="none" xmlns="http://www.w3.org/2000/svg">
<path d="M38.3721 60H21.6279C6.47442 60 0 53.5256 0 38.3721V21.6279C0 6.47442 6.47442 0 21.6279 0H38.3721C53.5256 0 60 6.47442 60 21.6279V38.3721C60 53.5256 53.5256 60 38.3721 60ZM21.6279 4.18605C8.76279 4.18605 4.18605 8.76279 4.18605 21.6279V38.3721C4.18605 51.2372 8.76279 55.8139 21.6279 55.8139H38.3721C51.2372 55.8139 55.8139 51.2372 55.8139 38.3721V21.6279C55.8139 8.76279 51.2372 4.18605 38.3721 4.18605H21.6279Z" fill="#F45E01"/>
<path d="M26.539 42.1948C25.3669 42.1948 24.2787 41.9157 23.3019 41.3576C21.0694 40.0738 19.7856 37.4506 19.7856 34.1297V25.8692C19.7856 22.5762 21.0694 19.925 23.3019 18.6413C25.5344 17.3576 28.4367 17.5529 31.3111 19.2274L38.4832 23.3576C41.3297 25.0041 42.9762 27.432 42.9762 29.9994C42.9762 32.5669 41.3297 34.9948 38.4832 36.6413L31.3111 40.7715C29.6925 41.7204 28.046 42.1948 26.539 42.1948ZM26.5669 21.9901C26.1204 21.9901 25.7297 22.0738 25.4227 22.2692C24.5297 22.7994 23.9996 24.1111 23.9996 25.8692V34.1297C23.9996 35.8878 24.5018 37.1994 25.4227 37.7297C26.3158 38.2599 27.7111 38.0366 29.246 37.1436L36.4181 33.0134C37.953 32.1204 38.8181 31.032 38.8181 29.9994C38.8181 28.9669 37.953 27.8506 36.4181 26.9855L29.246 22.8552C28.2413 22.2692 27.3204 21.9901 26.5669 21.9901Z" fill="#F45E01"/>
</svg>
