<svg width="106" height="24" viewBox="0 0 106 24" fill="none" xmlns="http://www.w3.org/2000/svg">
<path d="M48.5784 20.9616L49.9371 15.0877L50.005 14.7944L49.7775 14.5972L45.22 10.646L51.2432 10.1231L51.5433 10.0971L51.6606 9.81965L54 4.28436L56.3394 9.81965L56.4567 10.0971L56.7568 10.1231L62.78 10.646L58.2225 14.5972L57.995 14.7944L58.0629 15.0877L59.4216 20.9616L54.2583 17.8469L54 17.6911L53.7417 17.8469L48.5784 20.9616Z" fill="#FFE500" stroke="black"/>
<path d="M68.5784 20.9616L69.9371 15.0877L70.005 14.7944L69.7775 14.5972L65.22 10.646L71.2432 10.1231L71.5433 10.0971L71.6606 9.81965L74 4.28436L76.3394 9.81965L76.4567 10.0971L76.7568 10.1231L82.78 10.646L78.2225 14.5972L77.995 14.7944L78.0629 15.0877L79.4216 20.9616L74.2583 17.8469L74 17.6911L73.7417 17.8469L68.5784 20.9616Z" fill="#FFE500" stroke="black"/>
<path d="M89.3318 19.9232L90.4243 15.2004L90.56 14.6138L90.1051 14.2194L86.44 11.042L91.2865 10.6213L91.8866 10.5692L92.1211 10.0143L94 5.56871L95.8789 10.0143L96.1134 10.5692L96.7135 10.6213L101.56 11.042L97.8949 14.2194L97.44 14.6138L97.5757 15.2004L98.6682 19.9232L94.5165 17.4187L94 17.1071L93.4835 17.4187L89.3318 19.9232Z" fill="white" stroke="#FF9900" stroke-width="2"/>
<path d="M27.5784 20.9616L28.9371 15.0877L29.005 14.7944L28.7775 14.5972L24.22 10.646L30.2432 10.1231L30.5433 10.0971L30.6606 9.81965L33 4.28436L35.3394 9.81965L35.4567 10.0971L35.7568 10.1231L41.78 10.646L37.2225 14.5972L36.995 14.7944L37.0629 15.0877L38.4216 20.9616L33.2583 17.8469L33 17.6911L32.7417 17.8469L27.5784 20.9616Z" fill="#FFE500" stroke="black"/>
<path d="M6.5784 20.9616L7.93714 15.0877L8.00498 14.7944L7.77753 14.5972L3.22002 10.646L9.24324 10.1231L9.5433 10.0971L9.66056 9.81965L12 4.28436L14.3394 9.81965L14.4567 10.0971L14.7568 10.1231L20.78 10.646L16.2225 14.5972L15.995 14.7944L16.0629 15.0877L17.4216 20.9616L12.2583 17.8469L12 17.6911L11.7417 17.8469L6.5784 20.9616Z" fill="#FFE600" stroke="black"/>
</svg>
