<svg width="44" height="44" viewBox="0 0 44 44" fill="none" xmlns="http://www.w3.org/2000/svg">
<path d="M36.8887 32.3614C36.0781 30.4677 34.9019 28.7476 33.4254 27.297C31.9534 25.8421 30.2098 24.6821 28.2907 23.8811C28.2735 23.8727 28.2563 23.8684 28.2391 23.8599C30.916 21.9528 32.6563 18.8464 32.6563 15.3415C32.6563 9.53547 27.8867 4.83128 22 4.83128C16.1133 4.83128 11.3438 9.53547 11.3438 15.3415C11.3438 18.8464 13.084 21.9528 15.761 23.8642C15.7438 23.8727 15.7266 23.8769 15.7094 23.8854C13.7844 24.6864 12.0571 25.8349 10.5747 27.3012C9.09958 28.753 7.92351 30.4728 7.11138 32.3656C6.31354 34.2187 5.88326 36.2055 5.8438 38.2183C5.84266 38.2635 5.8507 38.3085 5.86746 38.3507C5.88422 38.3928 5.90936 38.4312 5.94139 38.4636C5.97343 38.4959 6.01171 38.5217 6.05399 38.5392C6.09626 38.5568 6.14168 38.5658 6.18755 38.5658H8.76567C8.95474 38.5658 9.10513 38.4175 9.10942 38.2353C9.19536 34.9635 10.5274 31.8994 12.8821 29.577C15.3184 27.1741 18.5539 25.8518 22 25.8518C25.4461 25.8518 28.6817 27.1741 31.118 29.577C33.4727 31.8994 34.8047 34.9635 34.8906 38.2353C34.8949 38.4217 35.0453 38.5658 35.2344 38.5658H37.8125C37.8584 38.5658 37.9038 38.5568 37.9461 38.5392C37.9884 38.5217 38.0266 38.4959 38.0587 38.4636C38.0907 38.4312 38.1158 38.3928 38.1326 38.3507C38.1494 38.3085 38.1574 38.2635 38.1563 38.2183C38.1133 36.1925 37.6879 34.2219 36.8887 32.3614ZM22 22.6309C20.0278 22.6309 18.1715 21.8723 16.775 20.495C15.3786 19.1176 14.6094 17.2868 14.6094 15.3415C14.6094 13.3963 15.3786 11.5655 16.775 10.1881C18.1715 8.81077 20.0278 8.05217 22 8.05217C23.9723 8.05217 25.8285 8.81077 27.225 10.1881C28.6215 11.5655 29.3906 13.3963 29.3906 15.3415C29.3906 17.2868 28.6215 19.1176 27.225 20.495C25.8285 21.8723 23.9723 22.6309 22 22.6309Z" fill="black"/>
</svg>
