<svg width="33" height="50" viewBox="0 0 33 50" fill="none" xmlns="http://www.w3.org/2000/svg">
<g clip-path="url(#clip0_497_207)">
<path d="M24.3241 18.0037C26.7188 20.3045 29.6525 21.6583 32.821 21.6583V13.4635C32.2213 13.4637 31.6232 13.3795 31.0365 13.2125V19.663C27.8683 19.663 24.935 18.3094 22.5398 16.0087V32.7321C22.5398 41.0981 17.4939 47.8795 11.2701 47.8795C8.94782 47.8795 6.78927 46.9359 4.99625 45.3175C7.04274 48.13 9.8967 49.8747 13.054 49.8747C19.2784 49.8747 24.3243 43.0933 24.3243 34.7269V18.0037H24.3241ZM26.5254 9.73608C25.3015 7.93901 24.4979 5.6166 24.3241 3.04901V1.99505H22.6331C23.0588 5.25832 24.5107 8.04626 26.5254 9.73608ZM8.93282 38.8978C8.24906 37.6929 7.87945 36.2187 7.88111 34.703C7.88111 30.8768 10.189 27.7744 13.0364 27.7744C13.567 27.774 14.0944 27.8835 14.6002 28.099V19.7209C14.0092 19.6121 13.4127 19.5657 12.8166 19.5828V26.1038C12.3106 25.8882 11.7828 25.7787 11.252 25.7794C8.40472 25.7794 6.09694 28.8814 6.09694 32.7081C6.09694 35.414 7.25044 37.7566 8.93282 38.8978Z" fill="#FF004F"/>
<path d="M22.5396 16.0085C24.935 18.3092 27.8681 19.6628 31.0364 19.6628V13.2123C29.2679 12.7059 27.7023 11.4638 26.5252 9.73608C24.5104 8.04608 23.0586 5.25815 22.633 1.99505H18.1914V34.7266C18.1813 38.5425 15.8773 41.6321 13.0361 41.6321C11.3619 41.6321 9.87439 40.5595 8.93243 38.8976C7.25032 37.7566 6.09668 35.4138 6.09668 32.7083C6.09668 28.8819 8.40446 25.7795 11.2518 25.7795C11.7973 25.7795 12.3231 25.8937 12.8163 26.104V19.583C6.7017 19.7528 1.7842 26.468 1.7842 34.7268C1.7842 38.8495 3.00874 42.5869 4.99625 45.3178C6.78927 46.9359 8.94769 47.8799 11.2701 47.8799C17.4941 47.8799 22.5398 41.098 22.5398 32.7321V16.0087L22.5396 16.0085Z" fill="black"/>
<path d="M31.0365 13.2121V11.4683C29.4417 11.4715 27.8784 10.8712 26.5253 9.73604C27.723 11.4985 29.3002 12.7138 31.0365 13.2124V13.2121ZM22.633 1.99483C22.5924 1.68304 22.5612 1.36916 22.5396 1.05397V0H16.4068V32.7319C16.3971 36.5474 14.0931 39.6371 11.2517 39.6371C10.4462 39.6387 9.65172 39.3855 8.93241 38.8979C9.87437 40.5595 11.3619 41.6319 13.036 41.6319C15.8772 41.6319 18.1814 38.5426 18.1914 34.7267V1.995H22.633V1.99483ZM12.8167 19.5828V17.726C12.3042 17.6318 11.7876 17.5847 11.2703 17.585C5.04571 17.585 0 24.3667 0 32.7319C0 37.9766 1.98303 42.5986 4.99648 45.3174C3.00897 42.5867 1.78443 38.8491 1.78443 34.7266C1.78443 26.4679 6.70181 19.7526 12.8167 19.5828Z" fill="#00F2EA"/>
</g>
<defs>
<clipPath id="clip0_497_207">
<rect width="32.4936" height="49.5" fill="white" transform="scale(1.0101)"/>
</clipPath>
</defs>
</svg>
