<svg width="33" height="23" viewBox="0 0 33 23" fill="none" xmlns="http://www.w3.org/2000/svg">
<path d="M22.471 10.4305C22.4135 9.844 21.919 9.407 21.3325 9.407H12.65C12.0175 9.407 11.5 9.9245 11.5 10.557V12.5235C11.5 13.156 12.0175 13.6735 12.65 13.6735H17.8365C17.71 14.7315 17.02 16.33 15.4905 17.3995C14.513 18.078 13.2135 18.5495 11.5 18.5495C11.4195 18.5495 11.3505 18.5495 11.27 18.538C8.3375 18.446 5.8535 16.4795 4.9565 13.777C4.715 13.0525 4.577 12.2935 4.577 11.5C4.577 10.7065 4.715 9.936 4.945 9.223C5.014 9.01599 5.0945 8.80901 5.1865 8.60201C6.2445 6.22151 8.556 4.5425 11.27 4.462C11.339 4.4505 11.4195 4.4505 11.5 4.4505C13.1445 4.4505 14.375 4.99099 15.2375 5.58899C15.686 5.89949 16.284 5.83049 16.675 5.45099L18.2735 3.887C18.7795 3.3925 18.7335 2.55299 18.1585 2.13899C16.33 0.793488 14.099 0 11.5 0C11.4195 0 11.3505 1.15049e-05 11.27 0.0115115C6.8655 0.0920115 3.082 2.64501 1.2305 6.33651C0.4485 7.90051 0 9.6485 0 11.5C0 13.3515 0.4485 15.0995 1.2305 16.6635H1.242C3.0935 20.355 6.877 22.908 11.27 22.9885C11.3505 23 11.4195 23 11.5 23C14.605 23 17.2155 21.9765 19.113 20.217C21.2865 18.2045 22.54 15.2605 22.54 11.753C22.54 11.2585 22.517 10.833 22.471 10.4305Z" fill="#FF7676"/>
<path d="M25.4444 10.4444C25.2015 10.4444 25 10.2429 25 9.99999C25 9.75702 25.2015 9.55554 25.4444 9.55554H32.5556C32.7985 9.55554 33 9.75702 33 9.99999C33 10.2429 32.7985 10.4444 32.5556 10.4444H25.4444Z" fill="#FF7676" stroke="black" stroke-width="100"/>
<path d="M29.0001 14C28.7571 14 28.5557 13.7985 28.5557 13.5556V6.44444C28.5557 6.20148 28.7571 6 29.0001 6C29.2431 6 29.4446 6.20148 29.4446 6.44444V13.5556C29.4446 13.7985 29.2431 14 29.0001 14Z" fill="#FF7676"/>
</svg>
