<svg width="26" height="34" viewBox="0 0 26 34" fill="none" xmlns="http://www.w3.org/2000/svg">
<path opacity="0.4" d="M24.8363 11.8361C24.188 11.8361 23.6726 12.3514 23.6726 12.9998V15.6264C23.6726 21.5113 18.8849 26.2991 13 26.2991C7.11508 26.2991 2.32736 21.5113 2.32736 15.6264V12.9831C2.32736 12.3348 1.81202 11.8195 1.16368 11.8195C0.515345 11.8195 0 12.3348 0 12.9831V15.6098C0 22.3758 5.20332 27.9448 11.8363 28.5433V32.0842C11.8363 32.7326 12.3517 33.2479 13 33.2479C13.6483 33.2479 14.1637 32.7326 14.1637 32.0842V28.5433C20.7801 27.9615 26 22.3758 26 15.6098V12.9831C25.9834 12.3514 25.468 11.8361 24.8363 11.8361Z" fill="#0930FF"/>
<path d="M13.0007 0C8.94439 0 5.65283 3.29156 5.65283 7.34782V15.8593C5.65283 19.9156 8.94439 23.2071 13.0007 23.2071C17.0569 23.2071 20.3485 19.9156 20.3485 15.8593V7.34782C20.3485 3.29156 17.0569 0 13.0007 0ZM15.1784 11.5537C15.0621 11.9859 14.6797 12.2685 14.2475 12.2685C14.1644 12.2685 14.0812 12.2519 13.9981 12.2353C13.3498 12.0524 12.6682 12.0524 12.0199 12.2353C11.4879 12.3849 10.9726 12.069 10.8396 11.5537C10.6899 11.0384 11.0058 10.5064 11.5211 10.3734C12.502 10.1074 13.5327 10.1074 14.5135 10.3734C15.0122 10.5064 15.3114 11.0384 15.1784 11.5537ZM16.0595 8.32864C15.9099 8.72762 15.5442 8.96035 15.1452 8.96035C15.0288 8.96035 14.9291 8.94373 14.8127 8.91048C13.649 8.47826 12.3523 8.47826 11.1887 8.91048C10.6899 9.09334 10.1247 8.82736 9.94186 8.32864C9.759 7.82992 10.025 7.2647 10.5237 7.09846C12.1196 6.51662 13.8818 6.51662 15.4777 7.09846C15.9764 7.28132 16.2424 7.82992 16.0595 8.32864Z" fill="#68A9FB"/>
</svg>
