<svg width="50" height="50" viewBox="0 0 50 50" fill="none" xmlns="http://www.w3.org/2000/svg">
<path d="M12.3507 0C13.3907 0 14.2332 0.809984 14.2332 1.80996V5.45989C15.9032 5.42989 17.7756 5.42989 19.8831 5.42989H29.9204C32.0254 5.42989 33.8978 5.42989 35.5678 5.46239V1.81246C35.5678 0.812484 36.4103 0 37.4502 0C38.4902 0 39.3327 0.809984 39.3327 1.80996V5.62489C42.9451 5.90238 45.3176 6.58487 47.0576 8.26234C48.8025 9.93731 49.5125 12.2173 49.8 15.6922L50 17.4997H0.000976543V15.6897C0.290971 12.2148 1.00096 9.93481 2.74342 8.25984C4.48589 6.58487 6.85584 5.89988 10.4683 5.62239V1.80996C10.4683 0.809984 11.3108 0 12.3507 0Z" fill="#110C80"/>
<path opacity="0.5" d="M49.9998 29.9994V24.9995C49.9998 22.9021 49.9898 19.1621 49.9573 17.4997H0.0257474C-0.00675196 19.1621 0.000747914 22.9021 0.000747914 24.9995V29.9994C0.000747914 39.4267 0.000747726 44.1416 2.93069 47.0691C5.85813 49.999 10.5705 49.999 20.0004 49.999H30.0002C39.425 49.999 44.1399 49.999 47.0698 47.0691C49.9998 44.1416 49.9998 39.4267 49.9998 29.9994Z" fill="#110C80"/>
<path d="M40.0002 37.4993C40.0002 38.1623 39.7368 38.7982 39.268 39.267C38.7991 39.7358 38.1633 39.9992 37.5002 39.9992C36.8372 39.9992 36.2013 39.7358 35.7325 39.267C35.2637 38.7982 35.0003 38.1623 35.0003 37.4993C35.0003 36.8362 35.2637 36.2004 35.7325 35.7315C36.2013 35.2627 36.8372 34.9993 37.5002 34.9993C38.1633 34.9993 38.7991 35.2627 39.268 35.7315C39.7368 36.2004 40.0002 36.8362 40.0002 37.4993ZM40.0002 27.4995C40.0002 28.1625 39.7368 28.7984 39.268 29.2672C38.7991 29.736 38.1633 29.9994 37.5002 29.9994C36.8372 29.9994 36.2013 29.736 35.7325 29.2672C35.2637 28.7984 35.0003 28.1625 35.0003 27.4995C35.0003 26.8364 35.2637 26.2006 35.7325 25.7317C36.2013 25.2629 36.8372 24.9995 37.5002 24.9995C38.1633 24.9995 38.7991 25.2629 39.268 25.7317C39.7368 26.2006 40.0002 26.8364 40.0002 27.4995ZM27.5004 37.4993C27.5004 38.1623 27.2371 38.7982 26.7682 39.267C26.2994 39.7358 25.6635 39.9992 25.0005 39.9992C24.3375 39.9992 23.7016 39.7358 23.2328 39.267C22.7639 38.7982 22.5005 38.1623 22.5005 37.4993C22.5005 36.8362 22.7639 36.2004 23.2328 35.7315C23.7016 35.2627 24.3375 34.9993 25.0005 34.9993C25.6635 34.9993 26.2994 35.2627 26.7682 35.7315C27.2371 36.2004 27.5004 36.8362 27.5004 37.4993ZM27.5004 27.4995C27.5004 28.1625 27.2371 28.7984 26.7682 29.2672C26.2994 29.736 25.6635 29.9994 25.0005 29.9994C24.3375 29.9994 23.7016 29.736 23.2328 29.2672C22.7639 28.7984 22.5005 28.1625 22.5005 27.4995C22.5005 26.8364 22.7639 26.2006 23.2328 25.7317C23.7016 25.2629 24.3375 24.9995 25.0005 24.9995C25.6635 24.9995 26.2994 25.2629 26.7682 25.7317C27.2371 26.2006 27.5004 26.8364 27.5004 27.4995ZM15.0007 37.4993C15.0007 38.1623 14.7373 38.7982 14.2685 39.267C13.7996 39.7358 13.1638 39.9992 12.5007 39.9992C11.8377 39.9992 11.2018 39.7358 10.733 39.267C10.2642 38.7982 10.0008 38.1623 10.0008 37.4993C10.0008 36.8362 10.2642 36.2004 10.733 35.7315C11.2018 35.2627 11.8377 34.9993 12.5007 34.9993C13.1638 34.9993 13.7996 35.2627 14.2685 35.7315C14.7373 36.2004 15.0007 36.8362 15.0007 37.4993ZM15.0007 27.4995C15.0007 28.1625 14.7373 28.7984 14.2685 29.2672C13.7996 29.736 13.1638 29.9994 12.5007 29.9994C11.8377 29.9994 11.2018 29.736 10.733 29.2672C10.2642 28.7984 10.0008 28.1625 10.0008 27.4995C10.0008 26.8364 10.2642 26.2006 10.733 25.7317C11.2018 25.2629 11.8377 24.9995 12.5007 24.9995C13.1638 24.9995 13.7996 25.2629 14.2685 25.7317C14.7373 26.2006 15.0007 26.8364 15.0007 27.4995Z" fill="#110C80"/>
</svg>
