<svg width="13" height="25" viewBox="0 0 13 25" fill="none" xmlns="http://www.w3.org/2000/svg">
<path d="M7.70833 5.74375V9.9125H11.1967C11.465 9.9125 11.5992 10.2 11.5992 10.4875L11.0625 13.2188C11.0625 13.3625 10.7942 13.5062 10.66 13.5062H7.70833V24H3.68333V13.65H1.4025C1.13417 13.65 1 13.5063 1 13.2188V10.4875C1 10.2 1.13417 10.0563 1.4025 10.0563H3.68333V5.3125C3.68333 2.86875 5.4275 1 7.70833 1H11.3308C11.5992 1 11.7333 1.14375 11.7333 1.43125V4.88125C11.7333 5.16875 11.5992 5.3125 11.3308 5.3125H8.11083C7.8425 5.3125 7.70833 5.45625 7.70833 5.74375Z" fill="white" stroke="#599CFF" stroke-width="2" stroke-miterlimit="10" stroke-linecap="round"/>
</svg>
